<?xml version="1.0" encoding="utf-8"?>
<!-- Generator: Adobe Illustrator 23.1.0, SVG Export Plug-In . SVG Version: 6.00 Build 0)  -->
<svg version="1.1" id="Layer_1" xmlns="http://www.w3.org/2000/svg" xmlns:xlink="http://www.w3.org/1999/xlink" x="0px" y="0px"
	 viewBox="0 0 792 1152" style="enable-background:new 0 0 792 1152;" xml:space="preserve">
<style type="text/css">
	.st0{display:none;}
	.st1{display:inline;opacity:0.68;fill:url(#SVGID_1_);enable-background:new    ;}
	.st2{display:inline;fill:#E2EFB4;}
	.st3{display:inline;opacity:0.53;fill:#9BAA3F;enable-background:new    ;}
	.st4{display:inline;fill:#486623;}
	.st5{display:inline;fill:#9CAE53;}
	.st6{display:inline;fill:#667E3B;}
	.st7{display:inline;fill:none;stroke:#000000;stroke-width:4;stroke-miterlimit:10;}
	.st8{display:inline;fill:#FFD700;}
	.st9{display:inline;fill:#115173;}
	.st10{display:none;fill:none;}
	.st11{fill:none;stroke:#000000;stroke-width:6;stroke-miterlimit:10;}
</style>
<g class="st0">
	
		<linearGradient id="SVGID_1_" gradientUnits="userSpaceOnUse" x1="-657.0456" y1="1018.9003" x2="-650.6926" y2="267.1355" gradientTransform="matrix(1 0 0 1 0 308)">
		<stop  offset="0" style="stop-color:#C7B299"/>
		<stop  offset="3.070000e-02" style="stop-color:#C0FF94"/>
		<stop  offset="1" style="stop-color:#EBFFBF"/>
	</linearGradient>
	<rect x="-1046.7" y="0" class="st1" width="792" height="1152"/>
	<path class="st2" d="M-803.4,135.7c0,94.9-77,171.9-171.9,171.9c-25.5,0-49.7-5.5-71.4-15.5V0h177
		C-829.3,31.4-803.4,80.5-803.4,135.7z"/>
	<path class="st2" d="M-254.7,753.5v226c-31.5,36.1-77.8,58.9-129.5,58.9c-94.9,0-171.9-77-171.9-171.9s77-171.9,171.9-171.9
		C-332.5,694.7-286.2,717.5-254.7,753.5z"/>
	<circle class="st2" cx="-675.4" cy="491.1" r="238.5"/>
	<circle class="st3" cx="-822.6" cy="321.5" r="171.9"/>
	<circle class="st3" cx="-513.8" cy="675.3" r="171.9"/>
	<path class="st4" d="M-510.9,531.8c-4.3-6.4-3-14.3-1.9-20.2c0.7-4,0.9-3,1.4-6.1c1.5-9.7-1.1-15.5,2.4-18.4
		c0.9-0.8,1.3-0.5,2.6-1.2c5.1-2.8,5.1-10.3,6.4-16c3.4-15.9,18.3-27.5,28.8-35.6c0.2-0.1,0.6-0.9,1.1-0.9c0.8,0.1,0.6,2.3,1.3,2.6
		c2.2,1.1,9.8-15.9,17.6-15c1.7,0.2,1.5,1,3.3,1.1c6.7,0.5,11.4-11.4,14.9-10.2c1.1,0.4,0.7,1.6,1.9,2.2c4.3,2.3,13.8-10.6,17.8-8.4
		c0.9,0.5,0.4,1.3,1.4,2c3.8,2.8,12.6-7,18.7-3.9c0.5,0.3,0.5,0.4,1.2,0.8c7.6,5.2,18.6-0.6,19.3,0.8c0.5,1.2-6.7,6-14.7,10.4
		c-9,4.9-10.3,4.4-15.5,8c-6.8,4.6-6,6.3-12.5,10.8c-7,4.9-10,4.4-18.1,8.7c-6.5,3.4-8.3,5.7-16.7,12.2
		c-19.1,14.9-21.9,12.6-32.7,22.8c-6.4,6-12.7,12-17.2,21.9c-7.3,16.1-5.3,33.2-8.5,33.4C-509.4,534-509.9,533.2-510.9,531.8z"/>
	<path class="st4" d="M-522.5,383.7c-6.6-1.5,1.4-59.8-1.1-67.8c-0.1-0.4-0.8-2.3,0.1-3.2c1.2-1.2,3.8,1,5.4,0.1
		c3.2-1.8-1.7-13,2-15.4c1.3-0.9,2.3,0.4,3.9-0.5c4.3-2.3,1.2-13.8,4-14.7c1.4-0.5,2.7,2.4,4.5,1.9c2.6-0.7,1.5-7,5.5-9.3
		c1.6-0.9,1.9,0,3.4-0.9c4.1-2.5,2.5-9.8,5.8-10.9c1.3-0.5,1.9,0.5,3.1-0.1c2-1.1,1.4-4.4,3.5-5.4c0.7-0.3,1.2-0.2,1.6-0.2
		c4.6-0.1,7.5-11.9,9.4-11.8c2,0.1,5.5,12.9,2.4,28.7c-2.6,12.7-7.4,16.8-17.6,36.5c-3.7,7-1.8,4.1-14.8,32.5
		C-519.3,382-521.2,384-522.5,383.7z"/>
	<path class="st4" d="M-549.7,296.5c-4.9-30-8.6-53.4-6-54c0.7-0.2,1.4,1.5,2.1,1.3c2.6-0.9-4.3-23,0.8-25.5c1.2-0.6,2,0.6,3.3-0.1
		c4.4-2.2-0.7-16.8,4-19.3c1.5-0.8,2.4,0.6,4.2-0.4c4.1-2.1,2.1-10.9,5.3-12c1.3-0.4,1.7,0.9,3.4,0.8c5.2-0.1,8.3-11.7,10.8-11.1
		c0.6,0.2,0.4,0.9,1.3,1.4c2.7,1.6,8.5-2.9,9.3-3.6c0,0,0.1-0.1,0.2-0.2c1.1-0.7,2.8,0.4,3.3,0.6c3.5,1.7,11.8-7.6,13.3-6.5
		c0.7,0.5-0.4,3.1-0.4,3.1c-4.4,10.1-20.3,21.1-20.3,21.1c-11,7.6-14.3,20.3-20.8,45.8c-4,15.4-4.8,28.8-6.3,55.5
		c-1,16.8-1,27.9-2.3,28C-545.5,321.5-546.6,315.5-549.7,296.5z"/>
	<path class="st4" d="M-593.1,98.2c2.4,0.7-0.7,10.8,2.1,24.3c2.2,10.6,6.6,16.7,9.9,22.6c13.9,25,12.3,55.1,11.7,67.8
		c-0.9,17.2-5.5,41.6,0,43.4c1.1,0.4,2.4-0.3,3.9,0.7c3.4,2.3,3,10.6,1.1,11.3c-2.8,1-7.9-14.7-23.7-42c-16.7-28.8-30-44.3-24-54.7
		c2.5-4.4,8.2-7.4,7.4-12.7c-0.7-4.9-6.5-7.8-5.3-10.6c0.6-1.5,2.4-1,4.6-2.5c5.7-3.9,6.3-15.7,2.8-17.6c-1.7-0.9-3.5,0.9-4.6,0
		c-0.9-0.8-1.3-3.2,4.2-14.5C-598.2,104.1-595.1,97.6-593.1,98.2z"/>
	<path class="st4" d="M-648.3,253c-1.1,1.8-2.5,4.2-3.1,4c-0.8-0.3,1.4-6.7-0.2-7.5c-0.7-0.4-1.6,0.6-2.1,0.2c-1.1-0.8,2-5,0.5-7.3
		c-1-1.5-3-0.7-3.5-1.9c-0.9-2,5.5-4.6,7.9-11.1c1.5-4.1,0-5.8,2-7.8c2.3-2.4,5.2-0.8,8.5-3.3c2.9-2.2,2.5-4.8,4-6.1
		c4.1-3.5,19.8,4.4,35.8,20.2c21.5,21.3,34.5,48.2,31.3,50.6c-2,1.5-11-6.7-29.2-23.1c-15.3-13.8-22.4-21.7-32.9-21.4
		c-2.7,0.1-9.9,0.3-13.4,4.9C-643.9,244.9-644.3,246.2-648.3,253z"/>
	<path class="st4" d="M-595.8,233.2c-9.9-13.4-20-21-27.5-25.5c-7.9-4.7-19.4-9.8-18.6-12.4c0.5-1.6,5.4-0.7,5.9-2.2
		c1.2-3.8-26.8-13-25.7-19.4c0.5-2.7,5.8-3.8,9-4.4c0.6-0.1,14.8-2.8,23.3,5.8c4.6,4.6,5.9,10.8,8.7,10.4c1.6-0.2,1.9-2.5,3.3-2.6
		c3-0.3,6.1,9.3,7.8,13.9c0.6,1.7,8.2,14.4,23.3,39.7c7,11.8,9.4,15.6,8.8,16.1C-578.6,253.3-587.9,242.6-595.8,233.2z"/>
	<path class="st4" d="M-564.5,324.1c0.8-1.5-37.3-23.3-46.3-29.8c-0.1-0.1-0.8-0.6-1.8-1.1c-5.5-3.2-12.1-4-12.7-2.6
		c-0.4,0.9,2,2.4,1.8,2.8c-0.7,1-14.5-7.4-15.5-6c-0.4,0.6,1.7,2.4,1.2,3c-1,1.3-12.1-6.5-13.8-4.6c-0.7,0.8,0.9,2.3,0.2,3.4
		c-1.7,2.6-14-2.6-14.5-1.4c-0.2,0.5,2.2,1.6,1.9,2.5c-0.5,1.9-12.3-0.6-13.4,2.3c-0.5,1.5,2.2,3.1,1.6,4.4c-1,2-7.9-1.4-11.7,1.9
		c0,0-1,0.8-3.3,6l0,0c0,0-2.3,0.7-3,1.9c-0.8,1.3,0.7,2.5,0.3,4.1c-0.5,2.5-4.4,2.6-7.4,4.8c-4.9,3.6-6.3,12.1-4.1,13.8
		c1.8,1.4,6.5-1.9,12.7-6.4c9.9-7.1,11.2-10.3,15.7-13.2c2.6-1.7,6-3.2,32.8-1.4c23.3,1.5,35.8,3.6,39.2,4.2
		c7.8,1.4,13.6,2.4,21.3,4.8C-571.3,321-564.8,324.7-564.5,324.1z"/>
	<path class="st4" d="M-527.5,418.3c0.6-0.5-2-5.5-7.4-15.5c-2.6-4.8-3.9-7.2-4.2-7.8c-5.9-8.5-12.5-9.1-21.9-16.9
		c-6.3-5.3-4.5-6-10.2-10.9c-16.1-14-39-16.1-40.2-13.1c-0.2,0.5,0.3,1,0,1.4c-1.6,2.4-18.1-6.4-18.7-5.2c-0.2,0.4,1.3,1.2,1.1,1.8
		c-0.7,1.9-17-2.7-17.9-0.5c-0.2,0.5,0.6,1,0.3,1.5c-0.8,1.7-9.9-1.5-10.6,0c-0.2,0.4,0.5,0.9,0.3,1.4c-0.4,1.7-7.7,1.3-10,1.3
		c-12.4,0-24.5,12.4-23.3,15.1c1.2,2.6,14.9-5.5,37.2-7.8c33.8-3.5,61.1,9,70.8,13.6c5.3,2.5,17.9,8.6,31.5,20
		C-537.5,407.7-528.7,419.3-527.5,418.3z"/>
	<path class="st4" d="M-522.5,531.6c2-1.2-6.2-21.4-19.4-38.8c0,0-14.6-19.3-33.8-31.1c-0.5-0.3-1-0.6-2.2-1.3
		c-8.8-5.5-12.2-8.7-13.4-7.8c-1,0.7,0.5,3.1-0.3,3.9c-2.5,2.1-17.9-12.7-19.4-11.3c-0.8,0.8,3.3,5.2,2.1,6.7
		c-1.9,2.4-13.8-7-19.4-2.8c-1.7,1.3-1.3,2.6-2.8,4.2c-4.4,4.5-13.9,0.4-20.1-0.7c-19.2-3.3-40.8,15.8-39.2,20.8
		c0.8,2.4,6.8,1.5,24.9,0.9c23.5-0.7,42.2-1.3,59.1,1.4c7.4,1.2,26.9,4.5,46.2,17.1C-534.3,509.7-524.7,532.9-522.5,531.6z"/>
	<path class="st4" d="M-558.4,809.5c3.2,1.7,10.2-18.4,31.1-31.5c15.3-9.6,18.8-3.4,54.1-16.9c9.2-3.5,15.5-6.5,26.4-8.5
		c20.4-3.8,26.2-2.5,28.2-1.4c0.4,0.2,3,1.6,6.5,1.8c2.5,0.1,5.9-0.4,6.3-1.8c0.2-0.8-0.7-1.2-0.6-1.9c0.2-2.9,13.2-2.2,15-7.2
		c0.9-2.4-1-5.8-3.3-7.4c-4.1-2.8-10,0-10.9-1.8c-0.6-1.3,2.4-3.2,1.9-4.4c-1.1-2.5-15.5,2.7-16.9,0c-0.6-1.3,2.2-3.2,1.6-4.4
		c-1.3-2.6-15.6,3.2-16.9,0.5c-0.6-1.2,1.8-2.8,1.2-4c-1.4-2.5-15.5,3.5-16.9,0.8c-0.6-1.1,1.4-2.9,0.9-3.5
		c-1.3-1.4-13.6,9.1-16.5,6.6c-1.3-1.1,0.3-4.1-0.9-4.8c-2.2-1.4-8.4,8.2-14.3,6.8c-2-0.5-2.7-1.8-3.7-2.6
		c-8.3-6-47.8,17.8-66.1,59.4C-557.5,794.9-560.9,808.1-558.4,809.5z"/>
	<path class="st4" d="M-633.9,434.9c-6.4-4.9-6.1-18.3-0.7-24.5c1.2-1.4,2.6-2.4,4.5-5.2c1.5-2.3,3.2-4.8,3.5-8.2
		c0.3-3.8-1.3-5.2,0-7.3c1.1-1.9,2.7-1.3,3.8-3.3c1.3-2.3-0.4-3.7,0.7-6.1c1.2-2.6,3.5-1.9,4.7-4.2c1.5-2.9-1.6-4.7-0.8-9.4
		c0.5-3.2,2.6-6.3,5.4-7.6c1.2-0.5,1.4-0.3,2.8-0.7c6.7-2,8.3-10.1,12.6-9.8c1.3,0.1,1.4,0.9,2.5,0.7c3.1-0.5,3.5-6.7,6.3-7.1
		c1-0.1,1.6,0.6,2.5,1.1c5.7,2.9,17.1-9.2,18.1-8.4c0.9,0.8-6.9,10.8-10.5,15.6c-5.1,7-9.7,15.6-18.7,32.9
		c-13.7,26.2-20.5,39.3-20.9,41.3c-0.5,2.7-1.7,9.4-6.3,11.5C-627.6,437.7-631.5,436.8-633.9,434.9z"/>
	<path class="st4" d="M-786.2,387.4c-0.4,1,32.2,15.2,61.2,31.5c17.7,10,28.5,16.2,41.4,27.8c6.1,5.5,19.8,18.6,32.5,39.1
		c12.6,20.4,16.1,37.1,17.4,36.7c1.1-0.4-3.7-11.5-8.2-34.6c-1.8-9.4-3.7-21.2-11.5-26.4c-1-0.6-2.5-1.5-4.5-3.3
		c-5.6-5.2-7.2-11.6-7.8-13.4c-5.1-17.3-35.3-44.5-38.8-41.9c-0.7,0.5,0,2-0.9,2.6c-2.4,1.5-10-6-12.6-8.6c-0.3-0.3-0.2-0.2-0.3-0.4
		c-4-3.9-10.4-7.8-13.7-5.9c-1.9,1.1-0.9,3.3-2.8,4.2c-3.1,1.5-8.5-2.6-10.8-4.4c-1.3-1-1-0.9-1.9-1.5c-4.4-3.1-11-4.6-14.1-1.9
		c-0.9,0.8-0.8,1.3-1.4,2.1C-767.3,394.6-785.8,386.6-786.2,387.4z"/>
	<path class="st4" d="M-561.7,777.5c-4-0.7-5.1-12.1-5.7-18.8c-1.4-16.1,1.2-18.6,0-29.2c-1.3-11.3-5.5-19.6-8.9-26.3
		c-7.5-14.8-17.4-25.2-15.1-27.8c1.1-1.2,3.8,0.5,5.1-1c1.5-1.8-1.2-5.5-3.9-13.9c-1.3-4.1-3.1-10.1-1.1-11.7
		c1.2-0.9,2.5,0.5,3.5-0.3c2.6-2.1-5-12.8-1.4-16.8c0.8-1,1.4-0.5,2.5-1.4c4.7-4.1-1.8-17.1,0.3-18.3c2.5-1.4,14,15.5,17.5,13.6
		c1.1-0.6,0.9-2.8,1.6-2.8c1.6-0.1,2.7,11.9,5.3,12c1.2,0,1.6-2.4,2.7-2.3c2.4,0.2,1.3,14.5,6,16.1c2.2,0.7,3.8-2.1,5.7-1.2
		c4.1,1.8,0.2,17.9,2.7,18.5c0.9,0.2,1.8-1.7,2.5-1.4c1.9,0.7-3.4,14.7,0.2,16.8c0.9,0.5,1.5-0.2,2.3,0.2c3.7,1.9-5.6,21-8.3,45.2
		c-0.4,3.2,0,1.3-1.4,20.1c-0.9,12.7-1.8,23.2-8.5,29.3C-559.5,777.1-560.6,777.7-561.7,777.5z"/>
	<path class="st4" d="M-615.8,681.5c-1.5,0.4-3.9-10.7-13.2-23.5c-9.1-12.6-13.5-11.4-24-23.1c-15-16.7-8.7-22.3-24.9-42.3
		c-7.7-9.5-20.1-21.7-18.1-24.2c0.7-0.8,2.7-0.2,3.2-1.2c1-2.1-6-6.3-4.9-8.8c0.4-1,1.7-0.8,2.3-1.8c1.6-2.5-3.4-8.3-4.2-9.3
		c-8.5-9.8-16.4-15.9-22.8-22.2c-9.1-9-13.6-17.2-13.1-17.6c0.7-0.6,11.4,11.5,14.8,9.4c1.4-0.8,1.1-3.6,1.9-3.7
		c1.3-0.1,2.3,6.2,4.1,6.2c1.2,0,1.7-3.2,2.8-3.2c1.6,0,2.4,6,3.7,6c1,0,0.8-3.6,2.3-4.2c3.2-1.3,10.5,12,13.4,10.8
		c1.5-0.6,0.8-4.7,1.8-4.9c1.9-0.4,4.9,13.9,9,13.8c1.8,0,2-2.8,3.9-3c3-0.4,5.2,6.1,12.5,18c3.5,5.7,6.2,9.3,10.8,12.2
		c2.5,1.5,4.5,2.2,5.1,2.5c14.6,5.6,24.9,59.9,27.3,72.7C-617,666.2-614.1,681-615.8,681.5z"/>
	<path class="st4" d="M-611.8,605c-2.3-0.8,0.9-10.3,1.4-27.5c0.6-19.9-3.3-25.2,1.7-35.3c2.7-5.5,5.1-6.5,6.6-12.5
		c2.3-9.1-0.5-17.7,1.9-18.6c1-0.3,1.3,1.1,2.8,1.2c5.5,0.5,7.6-18,18.3-21.9c1.1-0.4,2.8-0.8,5.2-2.1c2-1.1,5.6-3.1,7.3-6.8
		c1-2.1,0.9-4,0.9-4.9c0.1-9.7,7-23,8.7-22.6c1.2,0.3,1.3,7.5-0.5,14.1c-2.2,8-6.6,13.4-4.9,15.1c1,1,3.1-0.5,4,0.5
		c1.7,1.8-4.8,8.8-8.2,17.2c-3.2,7.6-2.1,12.3-2.8,19.3c-2.3,23.2-19,23.2-25.4,49.9c-1.4,5.9-2.6,14.2-8.2,24.5
		C-604,596.1-609.4,605.8-611.8,605z"/>
	<path class="st4" d="M-777,708.1c-6.5-6.9-9.3-14-10.6-18c-0.7-2.3-2.8-8.8-1.4-9.5c1.5-0.8,5.4,5.3,6.7,4.6
		c1.7-0.8-2.6-11.2-5.3-20.8c-6.6-23.7-4.6-47.3,0.7-48.7c1.3-0.3,2,0.8,3.2,0.2c4.1-2.1-0.8-18.2,2.3-19.4c0.9-0.3,1.5,0.8,2.5,0.5
		c2.9-1,1-11.4,3.5-12.1c0.9-0.3,1.3,1,2.3,0.8c3.5-0.5,3-15.5,6.7-16.1c0.9-0.2,1.2,0.8,2.3,0.9c3.9,0.6,7.3-9,11.8-14.9
		c8.5-11.4,24.7-15,26.5-12.6c1.4,2-6.9,8.4-15.3,19.1c-11.1,14.2-14.9,26.8-22.6,52c-8.8,29.1-13.5,44.3-11.8,65.4
		c1,13,4.7,30.4,1.7,31.3C-774.3,710.8-775.2,709.9-777,708.1z"/>
	<path class="st4" d="M-706.8,778.7c-0.3,0.1-1.7-8-8.1-15.2c-4.3-4.8-8.9-7-10.2-7.8c-21.1-11.4-35.7-83-28.6-85.4
		c1.3-0.4,2.4,1.6,4.2,0.9c4.2-1.5,4.2-14.4,4.2-19.5c0-3.8-0.2-8.5,1.4-9.1c0.9-0.3,1.6,1,2.3,0.7c2.5-0.9-1.6-16.4,1.2-17.5
		c0.7-0.3,1.1,0.5,1.9,0.2c1.7-0.6,1.2-5,1.4-11.2c0.2-4.8,0.5-11.5,2.9-12.2c1.3-0.4,2.1,1.4,3.5,1.2c4.2-0.5,4.5-17,6.7-17.1
		c2.1-0.1,3.8,15.5,7.2,15.5c1.5,0,2.4-2.9,3.3-2.7c1.7,0.5-2,10.9,2.8,15.5c0.7,0.7,1.4,1,1.8,1.2c7.8,4.8-4,38.5-6.5,73.9
		c-1.1,15,0.6,15.7-1.1,29.7c-1.1,9-2.6,16.2-0.3,26.1c0.4,1.8,0.5,1.5,3.5,10.9C-707.9,773.1-706.5,778.6-706.8,778.7z"/>
	<path class="st4" d="M-530.6,907.5c1.2-0.4-1.8-11.9-8.5-34.9c-7-24.1-10.5-36.2-17.7-57.2c-8.4-24.9-20.7-58.8-26.1-57.5
		c-1.6,0.3-1.4,3.4-3.5,3.9c-5.4,1.2-12.6-17.9-17.3-16.6c-1.5,0.4-1.3,2.5-3.2,3.5c-4.1,2.2-10.5-7.2-13.1-5.7
		c-1.2,0.7,0,2.6-1.4,4.5c-2.1,2.7-6,0.6-9.7,3.2c-2.9,2-1.8,4.4-4.2,6.5c-5.1,4.3-15.1-1.7-16.2,0.3c-0.9,1.5,4.4,5.3,11.4,13.5
		c3.6,4.2,10.6,12.3,8.7,15.2c-1.2,1.8-5.1,0.4-5.5,1.5c-0.9,2.5,17.4,10,16.3,14c-0.4,1.4-2.8,1.4-2.8,2.6c0,1.8,5.6,1.7,10.1,5.9
		c2.7,2.5,2.1,4,4.7,6.8c3.7,4.2,8.6,5.2,10.8,5.9c8.1,2.5,12.1,9.8,22.3,22.6c16,20.1,17,16,26.8,29.9
		C-536,893.2-532,908-530.6,907.5z"/>
	<path class="st4" d="M-624.5,1009.5c-0.2,0.2-7.3-8.9-19.3-17.4c-21.3-15.2-43.6-18.2-56.2-19.8c-19.2-2.4-46.6-5.8-71.1,8.9
		c-18.3,11-29.9,29.2-32,27.5c-2-1.6,8.9-19,5.9-21.2c-1-0.7-2.9,0.6-3.3,0c-1.1-1.6,11-10.7,9.4-13.4c-0.5-0.9-2.3-0.4-2.6-1.2
		c-0.8-2.3,13.8-8.3,12.9-11.8c-0.4-1.5-3.6-1.6-3.5-2.3c0.1-1.7,16.4-0.5,17.4-4.5c0.5-2-3.1-3.7-2.6-4.9
		c1.3-3.2,26.6,5.7,28.2,2.1c0.6-1.3-2.2-3.3-1.7-4c1.4-2,20.3,13.9,31.3,8c2.5-1.3,2.1-2.5,4.2-3.8c5.5-3.4,16.5-1.1,43.3,20.5
		C-641,990.9-624.2,1009.2-624.5,1009.5z"/>
	<path class="st4" d="M-442.4,1073.7c-3.4,1.2-8-22.4-27.2-46.6c-6.1-7.7-12.7-14.2-12.7-24c0-4.6,1.4-8.7-1.1-13.4
		c-2.6-5.1-5.8-3.5-10.2-8.8c-7.9-9.5-6-24.6-5.7-27.6c0-0.1,0-0.3,0-0.3c0.4-0.3,2.5,2.6,3.4,2.3c2.2-0.7-2.9-20.8,0.1-21.9
		c1.3-0.5,3,3.2,4.9,2.7c3.3-0.9,2.4-13.2,4.6-13.4c0.9-0.1,1.4,2.1,2.5,2c2.4-0.2,2.5-11.8,5.3-12.1c1.4-0.2,2,2.5,3.5,2.3
		c2.2-0.2,2.1-6.2,5.4-11.4s9.9-9.6,13.4-8c5.1,2.3,1.9,17,5.6,17.9c2.3,0.6,4.8-4.3,5.9-3.8c2.3,1.2-7.8,22-2.4,29.2
		c0.4,0.5,1.6,1.9,1.9,4c0.5,3.4-1.6,6.4-2.1,7.1c-4.2,6.2-1,20.9,0,27.5c3.4,21.2-5.5,21-2.6,43.3c1.6,12,4.6,15.8,7.1,35.5
		C-441.4,1066.2-440.6,1073.1-442.4,1073.7z"/>
	<path class="st5" d="M-649.2,1152c-11.5-7.7-1.1-34.7,14.8-114.3c5.3-26.8,7.2-38.7,13.8-68.1c0,0,5.3-23.4,11.3-46.9
		c12.8-49.8,48.4-174.8,76.6-264.7c0,0,5.1-16.3,12.7-61.4c1.9-11.5,3.2-20.7,1.4-32.5c-2.1-13.6-6.4-17.9-8.5-30.3
		c-2.7-15.9,1.1-27.8,3.1-36.2c8.6-37.5-2.9-78.3-17.4-129.4c-6.9-24.4-8.5-22.4-13.2-42.1c-5.8-24.4-5.7-37.2-16.9-51.3
		c-4.1-5.1-6.9-6.9-9.9-13.1c-7.4-15.3-4.2-33.5-1.1-33.9c2.7-0.3,4.3,12.6,17.7,48c6.9,18.4,7.1,16.5,11.3,28.6
		c8.4,24.4,6.7,29.1,14.5,52.9c7,21.1,8.8,18.6,13.8,36c4.8,16.5,6.2,29.4,8.1,47.3c2.4,22.4,3.7,33.5,2.1,44.8
		c-1.3,9.7-2,19.5-3.2,29.3c-1,8.9-2.2,18.5,2.1,21.2c0.2,0.1,2,1.2,3.2,0.5c2.5-1.4-0.3-9,1.9-10.1c0.6-0.3,1.5,0,1.9,0.3
		c2.3,1.7,0.4,7.4-0.7,13.2c-0.2,1.3-0.4,6.5-0.7,16.9c-0.4,13.3,0.2,22.8,0.4,27.5c0.3,10-0.8,18.1-7.8,49.9
		c-6,27.5-9,41.3-12.3,54c-11.9,45-21.6,74.7-38.5,130.1c-14.1,46.5-21.3,70.2-28.2,96.9c-5.9,22.8-12.9,51.9-19.8,86.1
		c-11.1,55.6-16.7,83.4-15.5,97.9c1.8,22.4,7.8,46-2.8,52.7C-638.9,1154.3-645,1154.8-649.2,1152z"/>
	<path class="st6" d="M-765.7,733.1c0.5-1.6-8.5-4.4-20.8-12c-1.5-1-7.3-5-18.7-13.1c-7-5-10.5-7.4-11.3-8.1
		c-9.9-8.9-14.6-19.5-16.2-18.7c-0.6,0.3,0.1,1.9-0.7,2.6c-2.6,2-14.6-10.5-16.2-9.1c-0.7,0.6,1.2,3.1,0.3,4.1
		c-1.7,1.8-10.7-5.5-13.1-3.3c-1.1,1,0.5,3-0.5,4.5c-2.8,4.1-19.6-3.3-20.7-0.9c-0.4,0.9,1.9,2.3,1.4,3.3c-1.1,2.5-17-2.7-17.9-0.4
		c-0.3,0.8,1.4,1.8,1.1,2.5c-0.9,2-16.5-4.9-18-2.5c-0.8,1.4,2.8,5.7,7.2,9c10.4,7.7,20.9,6.4,35.5,7.9c12,1.3,20.2,3.9,33.2,7.9
		c18.4,5.8,28.8,9,41.1,16.6c3,1.8,14,8.8,28.4,10.2C-766.3,734.2-765.8,733.4-765.7,733.1z"/>
	<path class="st6" d="M-650.6,842.9c0.9-9.2-68.7-24.5-69.9-20.8c-0.5,1.7,12.4,7,11.7,9.2c-1.1,3-26.6-7.4-35.3,2.5
		c-2.5,2.8-1,4.4-3.9,7.8c-7.4,8.7-23.1,5.7-23.3,8.1c-0.2,1.7,7.3,2.7,7.4,4.9c0.1,3.8-21,4.5-22.9,12.3c-1.5,6,9.5,11,7.8,16.9
		c-1.9,6.3-16.1,6.2-16.2,10.2c-0.1,2.5,5.4,2.7,7.4,6.7c4.4,8.7-13.8,23.8-11.3,26.8c1.7,2.1,13-1.7,21.2-10.6
		c7.3-7.9,6.6-13.8,12.7-25.1c1.9-3.5,8.5-15.4,20.5-23.7c10.1-7,21.5-8.9,44.5-12.7c9.1-1.5,11.1-1.4,20.1-3.2
		C-662.4,848.8-651,846.5-650.6,842.9z"/>
	<path class="st5" d="M-417.7,1152c-23-8.8-13.7-43.2-36-83.9c-2.8-5.2-32.7-39.2-69.9-68c-33.6-26.1-46.6-20.8-66.8-43.8
		c-13.6-15.5-8.8-17.5-34.3-54.1c-14.8-21.2-15.1-18.7-36.7-48.9c-10.1-14.2-16.6-24-29.2-39.5c-4.9-6-10.6-13.1-18.8-22.1
		c-15.6-17-16.9-15.5-27.3-27.8c-12.4-14.7-12.7-19.6-22.6-25.9c-9.6-6.1-20.4-8.7-20.3-8.7c0,0,14.9,6.9,16.6,4.3
		c1.1-1.7-4.3-7-16.3-19.1c-22-22.1-19.1-19.7-22.6-22.8c-22-19.6-42.6-28-42.2-28.6c0.3-0.5,14.2,4.7,28.8,15.4
		c5.1,3.8,9.3,7.5,10,6.8c0.9-0.8-5.5-7.3-10.7-16.7c-9.5-16.8-10.3-33.8-10-33.9c0.2,0,0.9,6.1,4.3,15.9c2.5,7,7.3,20.5,18.2,33.2
		c3.4,4,4,3.8,11.9,11.3c13.1,12.3,16.6,17.4,30,31.4c13.1,13.7,13.2,12.5,29.8,29.3c0,0,13.5,13.6,28.2,29.8
		c10,11,34.1,38.1,66.3,81.9c36.8,50,29.7,47.7,46.9,66.7c31.4,34.7,75.6,65,85.1,56.8c6.4-5.5-4.7-27.5-26.8-71.5
		c-2.2-4.3-5.6-10.8-12.3-16.9c-8.1-7.3-17-10.3-16.8-10.8c0.2-0.4,5.9,1.6,11.7,4.8c5.5,3,11.1,7.2,12,7.8c3.2,2.4,3.4,2.8,3.6,2.7
		c3.1-1.6-33.4-60.3-53.3-133.5c-4.6-17-7.5-31.8-16.5-58.3c-7.2-21.5-17.1-46.6-16.5-46.8c0.4-0.2,5,13.2,6.9,12.7
		c2.3-0.5-1.2-21-6.3-54c-9.7-62.3-8.8-63.7-13.8-87.2c-7-33.3-13.6-54.2-13.1-54.4c0.6-0.2,8.2,22.9,14.5,49.9
		c0.7,3,0.8,3.6,1.8,7.9c4.7,20.6,7,27.4,9.2,37.6c1.5,6.8,0.7,5.2,3.9,28.8c6.8,50.6,9.3,51.4,8.8,60.7c-0.1,2.4-0.6,8.6,2.1,15.5
		c1.4,3.5,2.5,4.3,4,7.8c3.4,7.5,3,14.4,3.1,16.5c0.2,13.6,17.7,73.4,45.5,134.2c12,26.2,20.6,41,29.3,67.8c2.3,7,3.6,11.9,7.1,19.8
		c7.9,18.1,14.5,23.8,23.3,43.9c4,9.1,2.6,7.9,6.1,15.8c7.1,16,14.7,25.1,25.3,39.2c18.6,24.5,27.9,36.8,34.9,50.5
		c9.8,18.9,7,20.5,15.5,32.9c7,10.1,11.1,22.1,18.4,32c0.9,1.2,2.7,3.7,1.9,5.6C-393.8,1156.5-409.6,1155.1-417.7,1152z"/>
</g>
<g class="st0">
	<path class="st7" d="M582.6,832.6l-62.7-146.4H231.5l-61.9,146.4H63.4L208,492.9h106.3L274.2,587H478
		c-97.5-228.9-149.2-350.2-155-364.2h106.3l259.6,609.8H582.6z"/>
</g>
<g class="st0">
	<path class="st7" d="M626.5,832.6l-62.7-146.4H275.5l-61.9,146.4H107.3l144.6-339.8h106.3l-40,94.2H522
		c-97.6-228.8-149.3-350.2-155.1-364.1h106.3l259.6,609.8L626.5,832.6L626.5,832.6z"/>
</g>
<g class="st0">
	<path class="st8" d="M2014.8,832.6L1952,686.3h-288.4l-61.8,146.4h-106.3l144.6-339.8h106.3l-40.1,94.1h203.8
		c-97.6-228.8-149.3-350.2-155.1-364.1h106.3L2121,832.6H2014.8z"/>
</g>
<g class="st0">
	<path class="st9" d="M2058.7,832.6L1996,686.3h-288.4l-61.8,146.4h-106.3l144.6-339.8h106.3l-40.1,94.1h203.8
		c-97.6-228.8-149.3-350.2-155.1-364.1h106.3L2165,832.6H2058.7z"/>
</g>
<image style="display:none;overflow:visible;enable-background:new    ;" width="559" height="897" xlink:href="3FA8D07F.png"  transform="matrix(0.4419 0 0 0.4419 826.6765 581.5952)">
</image>
<rect x="536.9" y="1255" class="st10" width="713.5" height="797.1"/>
<text transform="matrix(1 0 0 1 652.1681 1794.6711)" style="display:none;fill:#115173;enable-background:new    ; font-family:'LucidaSans'; font-size:700px;">A</text>
<text transform="matrix(1 0 0 1 652.1681 1794.6711)" style="display:none;fill:none;stroke:#000000;stroke-width:14;stroke-miterlimit:10;enable-background:new    ; font-family:'LucidaSans'; font-size:700px;">A</text>
<g>
	<path class="st11" d="M271.8,655.8l-68.5,207.6h-88.1l224.2-659.9h102.8l225.2,659.9h-91.1l-70.5-207.6L271.8,655.8L271.8,655.8z
		 M488.2,589.2l-64.6-189.9c-14.7-43.1-24.5-82.2-34.3-120.4h-2c-9.8,39.2-20.6,79.3-33.3,119.4l-64.6,190.9H488.2z"/>
</g>
<g>
	<path class="st11" d="M312.1,697.7l-68.5,207.6h-88.1l224.2-659.9h102.8l225.2,659.9h-91.1l-70.5-207.6L312.1,697.7L312.1,697.7z
		 M528.5,631.2l-64.6-189.9c-14.7-43.1-24.5-82.2-34.3-120.4h-2c-9.8,39.2-20.6,79.3-33.3,119.4l-64.6,190.9H528.5z"/>
</g>
<line class="st11" x1="112.3" y1="864.2" x2="153.4" y2="906.7"/>
<line class="st11" x1="203.3" y1="863.3" x2="244.4" y2="904.5"/>
<line class="st11" x1="576.3" y1="863.3" x2="617.4" y2="904.5"/>
<line class="st11" x1="667.3" y1="863.3" x2="708.5" y2="904.5"/>
<line class="st11" x1="389.3" y1="278.8" x2="430.4" y2="320"/>
<line class="st11" x1="289.4" y1="589.2" x2="330.6" y2="630.3"/>
<line class="st11" x1="488.2" y1="589.2" x2="528.5" y2="631.2"/>
<line class="st11" x1="339.4" y1="203.5" x2="380.5" y2="244.6"/>
<line class="st11" x1="442.2" y1="203.5" x2="483.3" y2="244.6"/>
</svg>
