<svg version="1.1" id="Layer_1" xmlns="http://www.w3.org/2000/svg" xmlns:xlink="http://www.w3.org/1999/xlink" x="0px" y="0px"
	 width="100%" viewBox="0 0 1100 1600" enable-background="new 0 0 1100 1600" xml:space="preserve">
<path fill="#FFFFFF" opacity="1.000000" stroke="none" 
	d="
M670.000000,1601.000000 
	C446.666656,1601.000000 223.833328,1601.000000 1.000000,1601.000000 
	C1.000000,1067.666626 1.000000,534.333313 1.000000,1.000000 
	C367.666656,1.000000 734.333313,1.000000 1101.000000,1.000000 
	C1101.000000,534.333313 1101.000000,1067.666626 1101.000000,1601.000000 
	C957.500000,1601.000000 814.000000,1601.000000 670.000000,1601.000000 
M722.950745,976.607605 
	C757.484375,1064.305420 792.017944,1152.003174 826.603699,1239.833496 
	C847.485474,1239.833496 868.447998,1239.833496 890.295593,1239.861938 
	C938.820251,1239.861938 987.344910,1239.861938 1036.152466,1239.861938 
	C1035.920898,1238.560913 1035.911865,1237.884766 1035.679688,1237.296875 
	C1029.806274,1222.431152 1023.841309,1207.601318 1018.032166,1192.710571 
	C1008.290955,1167.740723 998.692932,1142.714966 988.946228,1117.747314 
	C981.370544,1098.341064 973.601257,1079.010132 966.024353,1059.604370 
	C956.275818,1034.636475 946.687805,1009.606018 936.928589,984.642395 
	C928.696716,963.585510 920.264160,942.607056 912.021118,921.554565 
	C902.955505,898.401306 894.058838,875.181946 884.988342,852.030640 
	C876.739746,830.977234 868.294678,810.000732 860.049255,788.946045 
	C850.335327,764.141602 840.758362,739.283508 831.093628,714.459717 
	C821.075134,688.727478 811.024292,663.007812 800.984680,637.283752 
	C790.769287,611.109253 780.601013,584.916321 770.318848,558.768066 
	C759.621155,531.562927 748.703613,504.443970 738.079468,477.210388 
	C725.463196,444.870544 713.106750,412.429474 700.546082,380.067841 
	C688.744690,349.662506 676.819458,319.305298 664.964355,288.920807 
	C664.009155,286.472595 662.905762,284.901764 659.682068,284.915039 
	C616.027161,285.094910 572.371460,285.107483 527.677124,285.034332 
	C507.216492,285.034332 486.755859,285.034332 466.227264,285.034332 
	C339.766357,603.399170 213.423706,921.466309 86.962105,1239.832886 
	C108.320992,1239.832886 129.284668,1239.832886 151.153564,1239.870972 
	C191.296417,1239.914062 231.439285,1239.949829 271.582092,1240.017822 
	C274.110535,1240.022095 276.312317,1240.168091 277.522766,1237.060425 
	C285.257111,1217.203979 293.169525,1197.416870 300.989380,1177.593628 
	C311.356171,1151.313599 321.647461,1125.003662 332.056610,1098.740479 
	C338.957886,1081.328003 346.078125,1064.002319 352.975250,1046.588257 
	C361.891113,1024.077148 370.708954,1001.527222 379.491302,978.963745 
	C380.516327,976.330200 382.201813,975.780945 384.819489,975.782593 
	C497.422760,975.855469 610.026062,975.864380 722.950745,976.607605 
z"/>
<path fill="#115173" opacity="1.000000" stroke="none" 
	d="
M528.716003,285.161438 
	C572.371460,285.107483 616.027161,285.094910 659.682068,284.915039 
	C662.905762,284.901764 664.009155,286.472595 664.964355,288.920807 
	C676.819458,319.305298 688.744690,349.662506 700.546082,380.067841 
	C713.106750,412.429474 725.463196,444.870544 738.079468,477.210388 
	C748.703613,504.443970 759.621155,531.562927 770.318848,558.768066 
	C780.601013,584.916321 790.769287,611.109253 800.984680,637.283752 
	C811.024292,663.007812 821.075134,688.727478 831.093628,714.459717 
	C840.758362,739.283508 850.335327,764.141602 860.049255,788.946045 
	C868.294678,810.000732 876.739746,830.977234 884.988342,852.030640 
	C894.058838,875.181946 902.955505,898.401306 912.021118,921.554565 
	C920.264160,942.607056 928.696716,963.585510 936.928589,984.642395 
	C946.687805,1009.606018 956.275818,1034.636475 966.024353,1059.604370 
	C973.601257,1079.010132 981.370544,1098.341064 988.946228,1117.747314 
	C998.692932,1142.714966 1008.290955,1167.740723 1018.032166,1192.710571 
	C1023.841309,1207.601318 1029.806274,1222.431152 1035.679688,1237.296875 
	C1035.911865,1237.884766 1035.920898,1238.560913 1036.152466,1239.861938 
	C987.344910,1239.861938 938.820251,1239.861938 889.731140,1239.491699 
	C888.603394,1237.734619 888.027161,1236.353149 887.478638,1234.960571 
	C853.991150,1149.946533 820.488403,1064.938477 787.084717,979.891541 
	C785.773560,976.553345 784.338257,974.995667 780.397156,975.051941 
	C762.577087,975.306641 744.751221,975.146912 726.927612,975.194580 
	C725.494263,975.198364 724.062134,975.641907 722.629395,975.881104 
	C610.026062,975.864380 497.422760,975.855469 384.819489,975.782593 
	C382.201813,975.780945 380.516327,976.330200 379.491302,978.963745 
	C370.708954,1001.527222 361.891113,1024.077148 352.975250,1046.588257 
	C346.078125,1064.002319 338.957886,1081.328003 332.056610,1098.740479 
	C321.647461,1125.003662 311.356171,1151.313599 300.989380,1177.593628 
	C293.169525,1197.416870 285.257111,1217.203979 277.522766,1237.060425 
	C276.312317,1240.168091 274.110535,1240.022095 271.582092,1240.017822 
	C231.439285,1239.949829 191.296417,1239.914062 150.677933,1239.490234 
	C150.612747,1237.857300 150.957413,1236.578979 151.442978,1235.356445 
	C201.639450,1108.979248 251.850296,982.607544 302.052094,856.232422 
	C362.934479,702.970703 423.819305,549.709961 484.681213,396.440094 
	C499.403503,359.364685 514.040039,322.255219 528.716003,285.161438 
M682.429504,873.540405 
	C703.147278,873.540405 723.865051,873.540405 745.105896,873.540405 
	C691.249634,736.853088 637.547729,600.557617 583.541504,463.489685 
	C576.075317,482.335724 568.878967,500.365326 561.795593,518.439209 
	C558.473572,526.915710 555.369202,535.477417 552.010925,544.749390 
	C544.999207,562.448425 538.003235,580.153748 530.972168,597.845093 
	C519.643127,626.350891 508.314148,654.856750 496.941254,683.345093 
	C487.004822,708.235352 476.931091,733.071045 467.057617,757.986206 
	C455.283722,787.696960 443.669739,817.471191 431.961853,847.208191 
	C428.621429,855.692566 425.195343,864.143311 421.674469,872.944580 
	C423.212250,873.052917 424.029633,873.161011 424.847015,873.160889 
	C510.456207,873.145569 596.065369,873.122192 682.429504,873.540405 
z"/>
<path fill="#FFD700" opacity="1.000000" stroke="none" 
	d="
M528.196533,285.097900 
	C514.040039,322.255219 499.403503,359.364685 484.681213,396.440094 
	C423.819305,549.709961 362.934479,702.970703 302.052094,856.232422 
	C251.850296,982.607544 201.639450,1108.979248 151.442978,1235.356445 
	C150.957413,1236.578979 150.612747,1237.857300 150.225327,1239.471191 
	C129.284668,1239.832886 108.320992,1239.832886 86.962105,1239.832886 
	C213.423706,921.466309 339.766357,603.399170 466.227264,285.034332 
	C486.755859,285.034332 507.216492,285.034332 528.196533,285.097900 
z"/>
<path fill="#FED700" opacity="1.000000" stroke="none" 
	d="
M722.790039,976.244385 
	C724.062134,975.641907 725.494263,975.198364 726.927612,975.194580 
	C744.751221,975.146912 762.577087,975.306641 780.397156,975.051941 
	C784.338257,974.995667 785.773560,976.553345 787.084717,979.891541 
	C820.488403,1064.938477 853.991150,1149.946533 887.478638,1234.960571 
	C888.027161,1236.353149 888.603394,1237.734619 889.288574,1239.477417 
	C868.447998,1239.833496 847.485474,1239.833496 826.603699,1239.833496 
	C792.017944,1152.003174 757.484375,1064.305420 722.790039,976.244385 
z"/>
<path fill="#FFFFFF" opacity="1.000000" stroke="none" 
	d="
M681.674561,873.099182 
	C596.065369,873.122192 510.456207,873.145569 424.847015,873.160889 
	C424.029633,873.161011 423.212250,873.052917 421.674469,872.944580 
	C425.195343,864.143311 428.621429,855.692566 431.961853,847.208191 
	C443.669739,817.471191 455.283722,787.696960 467.057617,757.986206 
	C476.931091,733.071045 487.004822,708.235352 496.941254,683.345093 
	C508.314148,654.856750 519.643127,626.350891 530.972168,597.845093 
	C538.003235,580.153748 544.999207,562.448425 552.398376,544.565308 
	C552.964172,545.179382 553.039246,546.018250 553.335632,546.769775 
	C563.897217,573.547485 574.478149,600.317627 585.059204,627.087585 
	C595.822571,654.319153 606.575562,681.554749 617.358704,708.778442 
	C625.206970,728.592468 633.148193,748.369751 640.955627,768.199707 
	C651.680908,795.440735 662.342407,822.707031 672.979675,849.982544 
	C675.970703,857.651917 678.781250,865.391724 681.674561,873.099182 
z"/>
<path fill="#FED700" opacity="1.000000" stroke="none" 
	d="
M682.052002,873.319824 
	C678.781250,865.391724 675.970703,857.651917 672.979675,849.982544 
	C662.342407,822.707031 651.680908,795.440735 640.955627,768.199707 
	C633.148193,748.369751 625.206970,728.592468 617.358704,708.778442 
	C606.575562,681.554749 595.822571,654.319153 585.059204,627.087585 
	C574.478149,600.317627 563.897217,573.547485 553.335632,546.769775 
	C553.039246,546.018250 552.964172,545.179382 552.475952,544.190918 
	C555.369202,535.477417 558.473572,526.915710 561.795593,518.439209 
	C568.878967,500.365326 576.075317,482.335724 583.541504,463.489685 
	C637.547729,600.557617 691.249634,736.853088 745.105896,873.540405 
	C723.865051,873.540405 703.147278,873.540405 682.052002,873.319824 
z"/>
</svg>