<?xml version="1.0" standalone="no"?>
<!DOCTYPE svg PUBLIC "-//W3C//DTD SVG 20010904//EN"
 "http://www.w3.org/TR/2001/REC-SVG-20010904/DTD/svg10.dtd">
<svg version="1.0" xmlns="http://www.w3.org/2000/svg"
 width="967.000000pt" height="956.000000pt" viewBox="0 0 967.000000 956.000000"
 preserveAspectRatio="xMidYMid meet">

<g transform="translate(0.000000,956.000000) scale(0.100000,-0.100000)"
fill="#000000" stroke="none">
<path d="M4513 9523 c-4 -10 -856 -2155 -1893 -4768 l-1887 -4750 625 -3 c463
-1 628 1 633 9 4 7 240 601 525 1320 l519 1309 2024 -3 2025 -2 417 -1060
c230 -583 463 -1176 519 -1317 l102 -258 729 0 c401 0 729 3 729 7 0 5 -838
2151 -1862 4770 l-1863 4763 -668 0 c-627 0 -668 -1 -674 -17z m1366 -3831
c441 -1118 801 -2035 801 -2038 0 -2 -729 -4 -1620 -4 -891 0 -1620 2 -1620 5
0 5 893 2259 1335 3370 125 314 240 606 257 649 21 53 33 74 38 65 5 -8 369
-929 809 -2047z"/>
</g>
</svg>
